/* XPM */
static char * historia16_xpm[] = {
"16 16 95 2",
"  	c None",
". 	c #135D7E",
"+ 	c #11556A",
"@ 	c #11566B",
"# 	c #12566B",
"$ 	c #477C8D",
"% 	c #6F98A5",
"& 	c #497D8D",
"* 	c #3A7384",
"= 	c #7098A5",
"- 	c #538392",
"; 	c #9AB6BF",
"> 	c #99B6BF",
", 	c #598695",
"' 	c #6F98A4",
") 	c #3C7385",
"! 	c #2C6A7C",
"~ 	c #477A8A",
"{ 	c #115267",
"] 	c #ABC2C9",
"^ 	c #FFFFFF",
"/ 	c #F9FBFB",
"( 	c #93B0BA",
"_ 	c #538291",
": 	c #2E6B7D",
"< 	c #7CA2AD",
"[ 	c #608D9B",
"} 	c #789DA9",
"| 	c #125166",
"1 	c #B9CBD1",
"2 	c #517E8D",
"3 	c #D5E0E3",
"4 	c #EBF0F2",
"5 	c #67919F",
"6 	c #7BA0AC",
"7 	c #88AAB4",
"8 	c #AAC0C8",
"9 	c #99B4BD",
"0 	c #FAFBFB",
"a 	c #124E63",
"b 	c #155166",
"c 	c #7296A3",
"d 	c #F1F4F6",
"e 	c #FDFDFE",
"f 	c #799EAA",
"g 	c #124F64",
"h 	c #9BB5BE",
"i 	c #88A9B3",
"j 	c #88A9B4",
"k 	c #E9EFF1",
"l 	c #7094A1",
"m 	c #BCCDD3",
"n 	c #5F8796",
"o 	c #97B2BB",
"p 	c #97B2BC",
"q 	c #8DAAB4",
"r 	c #507C8C",
"s 	c #C0D0D5",
"t 	c #7E9FAB",
"u 	c #EFF3F5",
"v 	c #9DB7C0",
"w 	c #125065",
"x 	c #769EAA",
"y 	c #FBFCFC",
"z 	c #F5F8F9",
"A 	c #81A2AD",
"B 	c #195569",
"C 	c #8AA9B3",
"D 	c #A3BBC4",
"E 	c #86A8B3",
"F 	c #81A5B0",
"G 	c #E2EAED",
"H 	c #E0E8EB",
"I 	c #608998",
"J 	c #7097A3",
"K 	c #578695",
"L 	c #1D5F73",
"M 	c #6B96A3",
"N 	c #5C8B99",
"O 	c #84A6B1",
"P 	c #F3F7F8",
"Q 	c #A7BFC7",
"R 	c #115368",
"S 	c #558493",
"T 	c #6B95A3",
"U 	c #1D5E72",
"V 	c #2D6A7C",
"W 	c #7099A6",
"X 	c #578796",
"Y 	c #8AACB6",
"Z 	c #8BACB7",
"` 	c #528392",
" .	c #427889",
"..	c #709AA6",
"+.	c #43798A",
"  . + @ @ @ @ # # @ @ @ @ + .   ",
". @ @ @ @ @ $ % % & @ @ @ @ @ . ",
"+ @ @ @ * = - ; > , ' ) @ @ @ + ",
"@ @ ! % ~ { ] ^ ^ / ( _ ' : @ @ ",
"@ @ < [ } | 1 ^ 2 3 ^ 4 5 6 @ @ ",
"@ @ 7 ^ 8 9 0 ^ a b c d e f @ @ ",
"@ @ 7 ^ ^ ^ ^ ^ a a g h ^ i + @ ",
"@ @ j ^ k l m ^ n o a o ^ i + @ ",
"@ @ 7 ^ p g q r ^ s t u ^ i + @ ",
"@ @ 7 ^ v w g a ^ ^ ^ ^ ^ j @ @ ",
"@ @ x y z A B g ^ z C D ^ E @ @ ",
"@ @ F [ G ^ H I ^ 1 | J K F @ @ ",
"@ @ L M N O P ^ ^ Q R S T U @ @ ",
"+ @ @ @ V W X Y Z ` W V @ @ @ + ",
". @ @ @ @ @  ...W +.@ @ @ @ @ . ",
"  . + @ @ @ @ @ # @ @ @ @ + .   "};
