/* XPM */
static char * historia64_xpm[] = {
"64 64 387 2",
"  	c None",
". 	c #145F86",
"+ 	c #115874",
"@ 	c #11566B",
"# 	c #125A74",
"$ 	c #10566B",
"% 	c #195C70",
"& 	c #1C5E72",
"* 	c #13576C",
"= 	c #6B96A3",
"- 	c #E3EBEE",
"; 	c #EBF1F2",
"> 	c #769EAA",
", 	c #175A6F",
"' 	c #598997",
") 	c #D6E2E6",
"! 	c #FEFEFE",
"~ 	c #B1C7CE",
"{ 	c #A6BFC7",
"] 	c #FDFEFE",
"^ 	c #DFE8EB",
"/ 	c #65919F",
"( 	c #12566B",
"_ 	c #11556A",
": 	c #477C8C",
"< 	c #C6D7DC",
"[ 	c #FFFFFF",
"} 	c #C3D4D9",
"| 	c #437989",
"1 	c #3B7284",
"2 	c #B8CCD3",
"3 	c #D1DEE2",
"4 	c #508292",
"5 	c #10556C",
"6 	c #377082",
"7 	c #B4C9D0",
"8 	c #D3E0E3",
"9 	c #568594",
"0 	c #115469",
"a 	c #4B7D8D",
"b 	c #CAD9DE",
"c 	c #BFD1D7",
"d 	c #407687",
"e 	c #2A677A",
"f 	c #A2BDC5",
"g 	c #FBFCFD",
"h 	c #E1EAEC",
"i 	c #6892A0",
"j 	c #13556A",
"k 	c #115368",
"l 	c #125469",
"m 	c #5D8A99",
"n 	c #DAE4E7",
"o 	c #ABC3CA",
"p 	c #326B7E",
"q 	c #206073",
"r 	c #8FAFB9",
"s 	c #F7F9FA",
"t 	c #ECF2F3",
"u 	c #7BA0AC",
"v 	c #17576C",
"w 	c #135469",
"x 	c #4D7F8E",
"y 	c #87A8B3",
"z 	c #A3BDC5",
"A 	c #A2BCC4",
"B 	c #84A6B1",
"C 	c #497B8B",
"D 	c #125368",
"E 	c #15566A",
"F 	c #6F97A4",
"G 	c #E7EEF0",
"H 	c #F9FBFC",
"I 	c #9AB6BF",
"J 	c #256376",
"K 	c #195B6F",
"L 	c #7DA2AE",
"M 	c #EEF3F5",
"N 	c #F6F8F9",
"O 	c #8DADB7",
"P 	c #205E72",
"Q 	c #5B8997",
"R 	c #DEE7EA",
"S 	c #D8E3E6",
"T 	c #5A8795",
"U 	c #115267",
"V 	c #19596D",
"W 	c #83A5B0",
"X 	c #F0F4F6",
"Y 	c #F4F7F8",
"Z 	c #87A9B4",
"` 	c #1C5C70",
" .	c #6A95A2",
"..	c #A0BBC3",
"+.	c #286477",
"@.	c #7A9EAA",
"#.	c #C2D2D8",
"$.	c #3C7182",
"%.	c #236073",
"&.	c #95B2BC",
"*.	c #F9FAFB",
"=.	c #EAF0F2",
"-.	c #759CA8",
";.	c #17586D",
">.	c #588897",
",.	c #D5E1E5",
"'.	c #B2C8CE",
").	c #356E80",
"!.	c #396E80",
"~.	c #FCFDFD",
"{.	c #A0B9C2",
"].	c #266174",
"^.	c #125267",
"/.	c #2E687A",
"(.	c #A8C0C8",
"_.	c #618E9C",
":.	c #12556A",
"<.	c #467C8C",
"[.	c #C5D6DB",
"}.	c #C5D5DA",
"|.	c #447989",
"1.	c #9EB8C0",
"2.	c #F1F5F6",
"3.	c #7EA1AC",
"4.	c #19576B",
"5.	c #3C7283",
"6.	c #B9CDD3",
"7.	c #CFDCE1",
"8.	c #4F8191",
"9.	c #367082",
"0.	c #B3C9D0",
"a.	c #D4E0E4",
"b.	c #578695",
"c.	c #125166",
"d.	c #CEDBDF",
"e.	c #E0E8EB",
"f.	c #5E8998",
"g.	c #4C7D8D",
"h.	c #CCDADF",
"i.	c #BED1D6",
"j.	c #3F7687",
"k.	c #29677A",
"l.	c #A1BCC5",
"m.	c #E2EAED",
"n.	c #6994A1",
"o.	c #13566B",
"p.	c #D3DFE2",
"q.	c #C4D4D9",
"r.	c #3E7284",
"s.	c #5E8B99",
"t.	c #DBE5E8",
"u.	c #AAC3CA",
"v.	c #316C7F",
"w.	c #81A5B1",
"x.	c #ECF2F4",
"y.	c #7BA1AD",
"z.	c #185A6E",
"A.	c #548393",
"B.	c #366D7F",
"C.	c #D3DEE2",
"D.	c #447586",
"E.	c #C9D7DC",
"F.	c #A3BCC4",
"G.	c #286275",
"H.	c #15576B",
"I.	c #7098A5",
"J.	c #E8EEF1",
"K.	c #89ABB6",
"L.	c #D3DFE3",
"M.	c #BDD0D6",
"N.	c #206174",
"O.	c #3B7183",
"P.	c #BDCFD5",
"Q.	c #4D7D8D",
"R.	c #125065",
"S.	c #124F64",
"T.	c #135065",
"U.	c #638B99",
"V.	c #E1E9EC",
"W.	c #F3F6F7",
"X.	c #82A4AF",
"Y.	c #18586C",
"Z.	c #1B5C70",
"`.	c #97B5BE",
" +	c #276477",
".+	c #1A556A",
"++	c #84A4AE",
"@+	c #E0E9EB",
"#+	c #477A8A",
"$+	c #84A7B2",
"%+	c #4D7D8C",
"&+	c #2A6174",
"*+	c #A6BDC5",
"=+	c #97B4BE",
"-+	c #A1BCC4",
";+	c #2F6578",
">+	c #A9BFC7",
",+	c #407182",
"'+	c #C6D4D9",
")+	c #DDE6E9",
"!+	c #235C70",
"~+	c #94B0B9",
"{+	c #F8FAFA",
"]+	c #618998",
"^+	c #598795",
"/+	c #97B4BD",
"(+	c #4D7C8C",
"_+	c #1A566B",
":+	c #7EA0AB",
"<+	c #F0F4F5",
"[+	c #124E63",
"}+	c #195569",
"|+	c #81A2AD",
"1+	c #F2F5F7",
"2+	c #8FAEB8",
"3+	c #9BB5BE",
"4+	c #E3EBED",
"5+	c #376B7C",
"6+	c #EFF3F5",
"7+	c #85A4AF",
"8+	c #A6BEC6",
"9+	c #54808F",
"0+	c #4D7B8B",
"a+	c #FAFCFC",
"b+	c #C7D5DA",
"c+	c #467586",
"d+	c #4E7B8B",
"e+	c #A5BCC4",
"f+	c #D9E3E6",
"g+	c #5A8593",
"h+	c #36697B",
"i+	c #B7C9D0",
"j+	c #E8EEF0",
"k+	c #7094A1",
"l+	c #165266",
"m+	c #255C6F",
"n+	c #9AB4BD",
"o+	c #98B3BC",
"p+	c #1C586C",
"q+	c #7D9EAA",
"r+	c #437383",
"s+	c #417283",
"t+	c #C5D4D9",
"u+	c #DEE6E9",
"v+	c #5F8796",
"w+	c #316678",
"x+	c #ABC0C8",
"y+	c #7B9CA8",
"z+	c #185267",
"A+	c #245B6F",
"B+	c #96B0BA",
"C+	c #F9FBFB",
"D+	c #7397A4",
"E+	c #235B6E",
"F+	c #80A0AC",
"G+	c #5A8695",
"H+	c #A6BFC6",
"I+	c #9FB8C1",
"J+	c #9EBAC2",
"K+	c #668F9D",
"L+	c #B0C5CC",
"M+	c #6F94A1",
"N+	c #86A9B3",
"O+	c #3A6D7F",
"P+	c #C6D5DA",
"Q+	c #9CB6BF",
"R+	c #245D70",
"S+	c #D7E2E5",
"T+	c #598593",
"U+	c #7C9EAA",
"V+	c #185469",
"W+	c #165367",
"X+	c #296679",
"Y+	c #DCE5E8",
"Z+	c #5A8594",
"`+	c #497C8C",
" @	c #246276",
".@	c #ACC4CB",
"+@	c #BFD0D6",
"@@	c #3C6F80",
"#@	c #65909D",
"$@	c #CDDBE0",
"%@	c #F3F6F8",
"&@	c #83A7B2",
"*@	c #477B8B",
"=@	c #CBDADE",
"-@	c #A0B9C1",
";@	c #265F72",
">@	c #F2F6F7",
",@	c #81A4AF",
"'@	c #1C5D71",
")@	c #8DAEB8",
"!@	c #C9D9DD",
"~@	c #226275",
"{@	c #98B6BF",
"]@	c #6793A0",
"^@	c #12576C",
"/@	c #66919E",
"(@	c #E5ECEF",
"_@	c #276376",
":@	c #256275",
"<@	c #6D97A4",
"[@	c #E9EFF1",
"}@	c #1D5F73",
"|@	c #346F81",
"1@	c #B5CAD1",
"2@	c #CEDCE0",
"3@	c #497E8E",
"4@	c #1A5B6F",
"5@	c #88AAB4",
"6@	c #4E8190",
"7@	c #D2DFE3",
"8@	c #ACC4CC",
"9@	c #2F6B7E",
"0@	c #4C808F",
"a@	c #D0DDE2",
"b@	c #B2C8CF",
"c@	c #326D7F",
"d@	c #2B6779",
"e@	c #C6D6DB",
"f@	c #346D7F",
"g@	c #B6CAD1",
"h@	c #CBDADF",
"i@	c #6995A2",
"j@	c #E5EDEF",
"k@	c #94B3BC",
"l@	c #216074",
"m@	c #437889",
"n@	c #C9D8DD",
"o@	c #88A9B3",
"p@	c #226074",
"q@	c #E2EBED",
"r@	c #64919F",
"s@	c #1A5D71",
"t@	c #86A9B4",
"u@	c #EDF2F4",
"v@	c #779EAA",
"w@	c #16586D",
"x@	c #64909D",
"y@	c #246174",
"z@	c #16576C",
"A@	c #789EAA",
"B@	c #286779",
"C@	c #A3BEC6",
"D@	c #DCE6E9",
"E@	c #5A8998",
"F@	c #195A6E",
"G@	c #83A6B1",
"H@	c #4C7E8D",
"I@	c #5A8897",
"J@	c #276679",
"K@	c #3D7586",
"L@	c #C0D2D8",
"M@	c #296678",
"N@	c #9DB9C2",
"O@	c #A4BEC6",
"P@	c #2E697B",
"Q@	c #3C7384",
"R@	c #C1D2D8",
"S@	c #C1D3D8",
"T@	c #DAE5E8",
"U@	c #487C8C",
"V@	c #66919F",
"W@	c #67929F",
"X@	c #4C7F8E",
"Y@	c #276578",
"Z@	c #DBE5E9",
"`@	c #5A8A98",
" #	c #15596D",
".#	c #749DA9",
"+#	c #ECF1F3",
"@#	c #1B5D71",
"##	c #789FAB",
"$#	c #16596E",
"%#	c #91B1BB",
"&#	c #6C97A4",
"*#	c #306C7E",
"=#	c #AFC6CD",
"-#	c #4F8292",
";#	c #B7CCD2",
">#	c #477C8D",
",#	c #B7CCD3",
"'#	c #D3E0E4",
")#	c #4E8291",
"!#	c #63909E",
"~#	c #E1EAED",
"{#	c #185B70",
"              . + @ @ @ @ @ @ @ @ @ @ @ @ @ @ @ @ @ @ @ @ @ @ @ @ @ @ @ @ @ @ @ @ @ @ @ @ @ @ @ @ @ @ @ @ @ @ + .               ",
"          # @ @ @ @ @ @ @ @ @ @ @ @ @ @ @ @ @ @ @ @ @ @ @ @ @ @ @ @ @ @ @ @ @ @ @ @ @ @ @ @ @ @ @ @ @ @ @ @ @ @ @ @ #           ",
"      $ @ @ @ @ @ @ @ @ @ @ @ @ @ @ @ @ @ @ @ @ @ @ @ @ @ @ @ @ @ @ @ @ @ @ @ @ @ @ @ @ @ @ @ @ @ @ @ @ @ @ @ @ @ @ @ @ $       ",
"    $ @ @ @ @ @ @ @ @ @ @ @ @ @ @ @ @ @ @ @ @ @ @ @ @ @ @ @ @ % & @ @ @ @ @ @ @ @ @ @ @ @ @ @ @ @ @ @ @ @ @ @ @ @ @ @ @ @ $     ",
"    @ @ @ @ @ @ @ @ @ @ @ @ @ @ @ @ @ @ @ @ @ @ @ @ @ @ @ * = - ; > , @ @ @ @ @ @ @ @ @ @ @ @ @ @ @ @ @ @ @ @ @ @ @ @ @ @ @     ",
"  # @ @ @ @ @ @ @ @ @ @ @ @ @ @ @ @ @ @ @ @ @ @ @ @ @ @ ' ) ! ~ { ] ^ / ( _ @ @ @ @ @ @ @ @ @ @ @ @ @ @ @ @ @ @ @ @ @ @ @ @ #   ",
"  @ @ @ @ @ @ @ @ @ @ @ @ @ @ @ @ @ @ @ @ @ @ @ @ _ : < [ } | _ _ 1 2 [ 3 4 _ _ _ _ @ @ @ @ @ @ @ @ @ @ @ @ @ @ @ @ @ @ @ @ @   ",
"5 @ @ @ @ @ @ @ @ @ @ @ @ @ @ @ @ @ @ @ @ @ @ _ 6 7 [ 8 9 0 0 0 0 0 0 a b [ c d _ _ _ _ @ @ @ @ @ @ @ @ @ @ @ @ @ @ @ @ @ @ @ 5 ",
"+ @ @ @ @ @ @ @ @ @ @ @ @ @ @ @ @ @ @ @ @ _ e f g h i j 0 k k k k k k k l m n ! o p 0 _ _ _ @ @ @ @ @ @ @ @ @ @ @ @ @ @ @ @ @ + ",
"@ @ @ @ @ @ @ @ @ @ @ @ @ @ @ @ @ @ @ _ q r s t u v k k w x y z A B C D k k E F G H I J 0 _ _ _ @ @ @ @ @ @ @ @ @ @ @ @ @ @ @ @ ",
"@ @ @ @ @ @ @ @ @ @ @ @ @ @ @ @ @ @ K L M N O P k k k Q R [ [ [ [ [ [ S T U U k V W X Y Z ` 0 _ _ @ @ @ @ @ @ @ @ @ @ @ @ @ @ @ ",
"@ @ @ @ @ @ @ @ @ @ @ @ @ @ @ @ *  .- g ..+.k k k U @.! [ [ [ [ [ [ [ [ [ #.$.U U U %.&.*.=.-.;._ _ @ @ @ @ @ @ @ @ @ @ @ @ @ @ ",
"@ @ @ @ @ @ @ @ @ @ @ @ @ @ @ >.,.! '.).k k k U U !.g [ [ [ [ [ [ [ [ [ [ [ ~.{.].^.U U /.(.] R _.:._ @ @ @ @ @ @ @ @ @ @ @ @ @ ",
"@ @ @ @ @ @ @ @ @ @ @ @ @ <.[.[ }.|.0 k k U U ^.^.1.[ [ [ [ [ [ [ [ [ [ [ [ [ [ 2.3.4.^.U k 5.6.[ 7.8._ @ @ @ @ @ @ @ @ @ @ @ @ ",
"@ @ @ @ @ @ @ @ @ @ @ 9.0.! a.b.0 k k k U U ^.c.c.d.[ [ [ [ [ [ [ [ [ [ [ [ [ [ [ [ e.f.^.U U k g.h.[ i.j.@ @ @ @ @ @ @ @ @ @ @ ",
"@ @ @ @ @ @ @ @ @ k.l.g m.n.o.0 0 k k U ^.^.c.c.c.p.[ [ [ [ [ [ ! [ [ [ [ [ [ [ [ [ [ [ q.r.^.U k l s.t.] u.v.@ @ @ @ @ @ @ @ @ ",
"@ @ @ @ @ @ @ @ w.s x.y.z._ 0 0 k A.B.^.^.c.c.c.c.C.[ [ [ [ [ [ D.E.[ [ [ [ [ [ [ [ [ [ [ ] F.G.U k k H.I.J.H K.@ @ @ @ @ @ @ @ ",
"@ @ @ @ @ @ @ @ L.M.N.@ _ 0 0 O.P.[ Q.^.c.c.c.R.R.C.[ [ [ [ [ [ S.T.U.V.[ [ [ [ [ [ [ [ [ [ [ W.X.Y.k k 0 Z.6.L.@ @ @ @ @ @ @ @ ",
"@ @ @ @ @ @ @ @ L.`.@ _ _  +..~.[ [ Q.c.c.c.R.R.R.C.[ [ [ [ [ [ S.S.S..+++Y [ [ [ [ [ [ [ [ [ [ [ @+#+k 0 0 `.L.@ @ @ @ @ @ @ @ ",
"@ @ @ @ @ @ @ @ L.`.@ K $+W.[ [ [ [ %+c.c.R.R.R.R.C.[ [ [ [ [ [ S.S.S.S.S.&+*+] [ [ [ [ [ [ [ [ [ [ N #+k 0 =+L.@ @ @ @ @ @ @ @ ",
"@ @ @ @ @ @ @ @ L.`._ -+[ [ [ [ [ [ %+c.R.R.R.;+>+] [ [ [ [ [ [ S.S.S.S.S.S.S.,+'+[ [ [ [ [ [ [ [ [ [ )+E k =+L._ @ @ @ @ @ @ @ ",
"@ @ @ @ @ @ @ @ L.`._ { [ [ [ [ [ [ %+c.R.!+~+{+[ [ [ [ [ [ [ [ S.S.S.S.S.S.S.S.S.]+e.[ [ [ [ [ [ [ [ [ ^+k /+L._ @ @ @ @ @ @ @ ",
"@ @ @ @ @ @ @ @ L.`._ { [ [ [ [ [ [ (+_+:+<+[ [ [ [ [ [ [ [ [ [ [+[+[+[+[+S.S.S.S.S.}+|+1+[ [ [ [ [ [ [ 2+k /+L._ _ @ @ @ @ @ @ ",
"@ @ @ @ @ @ @ @ L.`.0 { [ [ [ [ [ [ 3+4+[ [ [ [ [ [ [ [ [ [ [ [ [+[+[+[+[+[+[+S.S.S.S.S.5+6+[ [ [ [ [ [ A k /+L._ _ @ @ @ @ @ @ ",
"@ @ @ @ @ @ @ @ L.`.0 { [ [ [ [ [ [ [ [ [ [ [ [ [ [ [ [ [ [ [ [ [+[+[+[+[+[+[+[+S.S.S.S.S.7+[ [ [ [ [ [ 8+k /+L.0 _ @ @ @ @ @ @ ",
"@ @ @ @ @ @ @ @ L.`.0 { [ [ [ [ [ [ [ [ [ [ [ [ [ [ [ [ [ [ [ [ [+[+[+[+[+[+[+[+[+S.S.S.S.9+[ [ [ [ [ [ 8+U /+L.0 _ @ @ @ @ @ @ ",
"@ @ @ @ @ @ @ @ L.=+0 { [ [ [ [ [ [ [ [ [ [ [ [ [ [ [ [ [ [ [ [ [+[+[+[+[+[+[+[+[+S.S.S.S.0+[ [ [ [ [ [ 8+U /+L.0 _ @ @ @ @ @ @ ",
"@ @ @ @ @ @ @ @ L.=+0 { [ [ [ [ [ [ [ [ [ [ [ [ ! a+[ [ [ [ [ [ [+[+[+[+[+[+[+[+[+[+S.S.S.0+[ [ [ [ [ [ 8+U /+L.0 _ _ @ @ @ @ @ ",
"@ @ @ @ @ @ @ @ L.=+0 { [ [ [ [ [ [ [ [ [ [ [ b+c+C.[ [ [ [ [ [ [+[+[+[+[+d+e+[+[+[+S.S.S.0+[ [ [ [ [ [ 8+U /+L.0 _ _ @ @ @ @ @ ",
"@ @ @ @ @ @ @ @ L.=+0 { [ [ [ [ [ [ [ [ [ f+g+S.S.C.[ [ [ [ [ [ [+[+[+h+i+[ C.[+[+[+S.S.S.0+[ [ [ [ [ [ 8+U /+L.0 _ _ @ @ @ @ @ ",
"@ @ @ @ @ @ @ @ L.=+0 { [ [ [ [ [ [ [ j+k+l+S.S.S.C.[ [ [ [ [ [ [+m+n+g [ [ C.[+[+[+S.S.S.0+[ [ [ [ [ [ 8+U /+L.0 _ _ @ @ @ @ @ ",
"@ @ @ @ @ @ @ @ L.=+0 { [ [ [ [ [ [ o+p+S.S.S.S.S.C.[ [ [ [ [ ! q+<+[ [ [ [ C.[+[+[+S.S.S.0+[ [ [ [ [ [ 8+U /+L.0 _ _ @ @ @ @ @ ",
"@ @ @ @ @ @ @ @ L.=+0 { [ [ [ [ [ [ (+R.S.S.S.S.S.C.[ [ [ [ b+r+[ [ [ [ [ [ C.[+[+[+S.S.s+t+[ [ [ [ [ [ 8+U /+L.0 _ _ @ @ @ @ @ ",
"@ @ @ @ @ @ @ @ L.=+0 { [ [ [ [ [ [ (+R.S.S.S.S.S.C.[ [ u+v+[+[+[ [ [ [ [ [ C.[+[+[+w+x+! [ [ [ [ [ [ [ 8+U /+L.0 _ _ @ @ @ @ @ ",
"@ @ @ @ @ @ @ @ L.=+0 { [ [ [ [ [ [ (+R.R.S.S.S.S.C.6+y+z+[+[+[+[ [ [ [ [ [ C.[+A+B+C+[ [ [ [ [ [ [ [ [ 8+U /+L.0 _ @ @ @ @ @ @ ",
"@ @ @ @ @ @ @ @ L.`.0 { [ [ [ [ [ [ (+R.R.S.S.S.S.D+E+[+[+[+[+[+[ [ [ [ [ [ f+F+<+[ [ [ [ [ [ [ [ [ [ [ 8+U /+L.0 _ @ @ @ @ @ @ ",
"@ @ @ @ @ @ @ @ L.`.0 { [ [ [ [ [ [ (+R.R.S.S.S.S.S.S.[+[+[+[+[+[ [ [ [ [ [ [ [ [ [ [ [ [ [ [ [ [ [ [ [ 8+k /+L.0 _ @ @ @ @ @ @ ",
"@ @ @ @ @ @ @ @ L.`.0 { [ [ [ [ [ [ (+R.R.R.S.S.S.S.S.S.[+[+[+[+[ [ [ [ [ [ [ [ [ [ [ [ [ [ [ [ [ [ [ [ 8+k /+L._ _ @ @ @ @ @ @ ",
"@ @ @ @ @ @ @ @ L.`._ { [ [ [ [ [ [ G+R.R.R.R.S.S.S.S.S.S.S.[+[+[ [ [ [ [ [ [ [ [ [ [ [ [ [ [ [ [ [ [ [ H+k /+L._ _ @ @ @ @ @ @ ",
"@ @ @ @ @ @ @ @ L.`._ { [ [ [ [ [ [ I+c.R.R.R.S.S.S.S.S.S.S.S.S.[ [ [ [ [ [ [ [ [ [ [ [ [ [ [ [ [ [ [ [ { k /+L._ @ @ @ @ @ @ @ ",
"@ @ @ @ @ @ @ @ L.`._ J+[ [ [ [ [ [ ~.K+R.R.R.R.S.S.S.S.S.S.S.S.[ [ [ [ [ [ [ [ [ [ [ ! L+M+[ [ [ [ [ [ { k =+L._ @ @ @ @ @ @ @ ",
"@ @ @ @ @ @ @ @ L.`._ N+[ [ [ [ [ [ [ [ P.O+R.R.R.R.S.S.S.S.S.S.[ [ [ [ [ [ [ [ [ [ P+D.R.(+[ [ [ [ [ [ { 0 =+L.@ @ @ @ @ @ @ @ ",
"@ @ @ @ @ @ @ @ L.`.@ | [ [ [ [ [ [ [ [ [ g Q+R+R.R.R.S.S.S.S.S.[ [ [ [ [ [ [ [ S+T+R.R.R.(+[ [ [ [ [ [ { 0 =+L.@ @ @ @ @ @ @ @ ",
"@ @ @ @ @ @ @ @ L.`.@ @ c [ [ [ [ [ [ [ [ [ [ <+U+V+R.R.R.R.S.S.[ [ [ [ [ [ 1+M+W+R.R.R.c.%+[ [ [ [ [ ! $+0 `.L.@ @ @ @ @ @ @ @ ",
"@ @ @ @ @ @ @ @ L.`.@ @ X+R [ [ [ [ [ [ [ [ [ [ [ Y+Z+R.R.R.R.R.[ [ [ [ [ [ C.R.R.R.c.c.c.%+[ [ [ [ h.`+0 _ `.L.@ @ @ @ @ @ @ @ ",
"@ @ @ @ @ @ @ @ L.`.@ @ @  @.@! [ [ [ [ [ [ [ [ [ [ [ +@@@R.R.R.[ [ [ [ [ [ C.R.c.c.c.c.c.Q.[ [ h #@l 0 _ _ `.L.@ @ @ @ @ @ @ @ ",
"@ @ @ @ @ @ @ @ $@%@&@% @ @ _ *@=@[ [ [ [ [ [ [ [ [ [ [ ~.-@;@R.[ [ [ [ [ [ C.c.c.c.c.^.^.Q.>@,@V 0 0 _ '@)@s !@@ @ @ @ @ @ @ @ ",
"@ @ @ @ @ @ @ @ ~@{@H - ]@^@_ _ :./@(@[ [ [ [ [ [ [ [ [ [ [ 2.3.[ [ [ [ [ [ p.c.c.c.^.^.U _@:@k 0 0 o.<@[@s r }@@ @ @ @ @ @ @ @ ",
"@ @ @ @ @ @ @ @ @ @ |@1@[ 2@3@_ _ 0 4@5@N [ [ [ [ [ [ [ [ [ [ [ [ [ [ [ [ [ p.^.^.^.U U k k k 0 0 6@7@! 8@9@@ @ @ @ @ @ @ @ @ @ ",
"@ @ @ @ @ @ @ @ @ @ @ @ 0@a@[ b@c@_ _ 0 d@(.! [ [ [ [ [ [ [ [ [ [ [ [ [ [ [ e@^.U U k k k k 0 f@g@[ h@<.@ @ @ @ @ @ @ @ @ @ @ @ ",
"@ @ @ @ @ @ @ @ @ @ @ @ @ * i@j@H k@l@_ 0 0 m@n@[ [ [ [ [ [ [ [ [ [ [ [ [ [ o@k k k k k 0 p@/+H q@r@^@@ @ @ @ @ @ @ @ @ @ @ @ @ ",
"@ @ @ @ @ @ @ @ @ @ @ @ @ @ @ s@t@Y u@v@w@_ 0 :.x@m.[ [ [ [ [ [ [ [ [ [ [ t y@k k k 0 z@A@M W.&@% @ @ @ @ @ @ @ @ @ @ @ @ @ @ @ ",
"@ @ @ @ @ @ @ @ @ @ @ @ @ @ @ @ @ B@C@] D@E@_ _ 0 F@G@Y [ [ [ [ [ [ [ [ X H@0 0 0 0 I@t.] f J@@ @ @ @ @ @ @ @ @ @ @ @ @ @ @ @ @ ",
"@ @ @ @ @ @ @ @ @ @ @ @ @ @ @ @ @ @ @ K@L@[ } d _ _ 0 M@N@Y [ [ [ [ s O@P@0 0 0 Q@R@[ S@K@@ @ @ @ @ @ @ @ @ @ @ @ @ @ @ @ @ @ @ ",
"@ @ @ @ @ @ @ @ @ @ @ @ @ @ @ @ @ @ @ @ @ >.T@] { e _ _ _ z.U@V@W@X@4@_ _ _ Y@-+] Z@`@@ @ @ @ @ @ @ @ @ @ @ @ @ @ @ @ @ @ @ @ @ ",
"+ @ @ @ @ @ @ @ @ @ @ @ @ @ @ @ @ @ @ @ @ @  #.#+#N K.@#@ _ _ _ _ _ _ _ K &@W.M ##$#@ @ @ @ @ @ @ @ @ @ @ @ @ @ @ @ @ @ @ @ @ + ",
"5 @ @ @ @ @ @ @ @ @ @ @ @ @ @ @ @ @ @ @ @ @ @ @ N.%#*.G &#* @ @ @ @ ^@r@q@a+`.~@@ @ @ @ @ @ @ @ @ @ @ @ @ @ @ @ @ @ @ @ @ @ @ 5 ",
"  @ @ @ @ @ @ @ @ @ @ @ @ @ @ @ @ @ @ @ @ @ @ @ @ @ *#=#! 7@-#@ @ <.h@[ ;#|@@ @ @ @ @ @ @ @ @ @ @ @ @ @ @ @ @ @ @ @ @ @ @ @ @   ",
"  # @ @ @ @ @ @ @ @ @ @ @ @ @ @ @ @ @ @ @ @ @ @ @ @ @ @ >#h@[ ,#8@! '#)#@ @ @ @ @ @ @ @ @ @ @ @ @ @ @ @ @ @ @ @ @ @ @ @ @ @ #   ",
"    @ @ @ @ @ @ @ @ @ @ @ @ @ @ @ @ @ @ @ @ @ @ @ @ @ @ @ ^@!#~#[@<@* @ @ @ @ @ @ @ @ @ @ @ @ @ @ @ @ @ @ @ @ @ @ @ @ @ @ @     ",
"    $ @ @ @ @ @ @ @ @ @ @ @ @ @ @ @ @ @ @ @ @ @ @ @ @ @ @ @ @ {#& @ @ @ @ @ @ @ @ @ @ @ @ @ @ @ @ @ @ @ @ @ @ @ @ @ @ @ @ $     ",
"      $ @ @ @ @ @ @ @ @ @ @ @ @ @ @ @ @ @ @ @ @ @ @ @ @ @ @ @ @ @ @ @ @ @ @ @ @ @ @ @ @ @ @ @ @ @ @ @ @ @ @ @ @ @ @ @ @ $       ",
"          # @ @ @ @ @ @ @ @ @ @ @ @ @ @ @ @ @ @ @ @ @ @ @ @ @ @ @ @ @ @ @ @ @ @ @ @ @ @ @ @ @ @ @ @ @ @ @ @ @ @ @ @ #           ",
"              . + @ @ @ @ @ @ @ @ @ @ @ @ @ @ @ @ @ @ @ @ @ @ @ @ @ @ @ @ @ @ @ @ @ @ @ @ @ @ @ @ @ @ @ @ @ @ + .               "};
