/* XPM */
static char * historia32_xpm[] = {
"32 32 216 2",
"  	c None",
". 	c #135D7E",
"+ 	c #11556C",
"@ 	c #11566B",
"# 	c #11546A",
"$ 	c #13586C",
"% 	c #14586D",
"& 	c #558695",
"* 	c #BFD2D7",
"= 	c #C1D3D8",
"- 	c #5B8A99",
"; 	c #43798A",
"> 	c #B8CCD2",
", 	c #8AABB5",
"' 	c #1E5D71",
") 	c #1B5C70",
"! 	c #85A7B2",
"~ 	c #BACED4",
"{ 	c #487C8C",
"] 	c #11556A",
"^ 	c #11536A",
"/ 	c #346E80",
"( 	c #ACC4CB",
"_ 	c #9CB7C0",
": 	c #276376",
"< 	c #215E72",
"[ 	c #538392",
"} 	c #528291",
"| 	c #1F5D71",
"1 	c #246174",
"2 	c #97B4BD",
"3 	c #AFC6CD",
"4 	c #387082",
"5 	c #286679",
"6 	c #9DB9C2",
"7 	c #ABC3CA",
"8 	c #346C7E",
"9 	c #115368",
"0 	c #799EAA",
"a 	c #F7F9FA",
"b 	c #FFFFFF",
"c 	c #F5F8F9",
"d 	c #8BABB5",
"e 	c #1C5A6E",
"f 	c #30697B",
"g 	c #A7BFC7",
"h 	c #A1BCC4",
"i 	c #2B677A",
"j 	c #1E5F73",
"k 	c #8BADB7",
"l 	c #B7CBD2",
"m 	c #427788",
"n 	c #115267",
"o 	c #3E7384",
"p 	c #FEFEFE",
"q 	c #E6EDEF",
"r 	c #6A929F",
"s 	c #135368",
"t 	c #B4C9CF",
"u 	c #90B0B9",
"v 	c #216074",
"w 	c #175A6F",
"x 	c #79A0AC",
"y 	c #BFD1D7",
"z 	c #548493",
"A 	c #115469",
"B 	c #125267",
"C 	c #125166",
"D 	c #7197A3",
"E 	c #CFDCE0",
"F 	c #497B8B",
"G 	c #4F808F",
"H 	c #BED0D6",
"I 	c #7EA3AE",
"J 	c #195C70",
"K 	c #C2D3D9",
"L 	c #6692A0",
"M 	c #13566B",
"N 	c #1B5B6F",
"O 	c #88A9B4",
"P 	c #2A6476",
"Q 	c #7297A4",
"R 	c #4D7B8B",
"S 	c #D0DCE1",
"T 	c #AFC5CC",
"U 	c #2F687B",
"V 	c #125469",
"W 	c #618E9C",
"X 	c #C4D5DA",
"Y 	c #B5CAD1",
"Z 	c #13576C",
"` 	c #6C95A2",
" .	c #E7EDF0",
"..	c #306779",
"+.	c #125065",
"@.	c #124F64",
"#.	c #145165",
"$.	c #6D939F",
"%.	c #E8EEF0",
"&.	c #65909D",
"*.	c #B5CAD0",
"=.	c #5A8998",
"-.	c #165368",
";.	c #7398A4",
">.	c #E9EFF1",
",.	c #1E586C",
"'.	c #8EABB5",
").	c #F6F9FA",
"!.	c #5B8A98",
"~.	c #799DA8",
"{.	c #DBE5E8",
"].	c #124E63",
"^.	c #306577",
"/.	c #C6D5DA",
"(.	c #558493",
"_.	c #B5C9D0",
":.	c #3F7182",
"<.	c #5B8897",
"[.	c #5B8998",
"}.	c #5C8897",
"|.	c #F6F8F9",
"1.	c #8CAAB4",
"2.	c #7FA0AB",
"3.	c #1B5569",
"4.	c #85A4AF",
"5.	c #678D9B",
"6.	c #A7BEC6",
"7.	c #2A6174",
"8.	c #7296A3",
"9.	c #698F9C",
"0.	c #E5EBEE",
"a.	c #7296A2",
"b.	c #306678",
"c.	c #CFDBDF",
"d.	c #4B7989",
"e.	c #407182",
"f.	c #C1D1D6",
"g.	c #5A8593",
"h.	c #688E9B",
"i.	c #134F64",
"j.	c #8FACB6",
"k.	c #AAC0C7",
"l.	c #5B8997",
"m.	c #477888",
"n.	c #528393",
"o.	c #D8E2E6",
"p.	c #477787",
"q.	c #C2D2D7",
"r.	c #608997",
"s.	c #1E5F72",
"t.	c #EFF4F5",
"u.	c #ACC1C9",
"v.	c #2E6577",
"w.	c #D8E2E5",
"x.	c #568291",
"y.	c #538493",
"z.	c #4F8191",
"A.	c #EAF0F2",
"B.	c #F6F9F9",
"C.	c #8BA9B3",
"D.	c #1C586C",
"E.	c #D1DEE2",
"F.	c #4E808F",
"G.	c #9EBAC3",
"H.	c #276578",
"I.	c #1F5F72",
"J.	c #F8FAFB",
"K.	c #6A919E",
"L.	c #7298A4",
"M.	c #266174",
"N.	c #6A94A1",
"O.	c #13556A",
"P.	c #286578",
"Q.	c #A2BDC5",
"R.	c #9BB8C1",
"S.	c #83A7B2",
"T.	c #195B6F",
"U.	c #316B7D",
"V.	c #B2C8CE",
"W.	c #6F96A3",
"X.	c #1A5A6E",
"Y.	c #B8CDD3",
"Z.	c #3F7788",
"`.	c #5E8D9B",
" +	c #66919F",
".+	c #12556A",
"++	c #4C7E8E",
"@+	c #FAFCFC",
"#+	c #336C7E",
"$+	c #5C8B9A",
"%+	c #7BA2AD",
"&+	c #BDD0D6",
"*+	c #497D8D",
"=+	c #6C96A3",
"-+	c #E4EBEE",
";+	c #5F8C9A",
">+	c #487B8C",
",+	c #7BA1AD",
"'+	c #175A6E",
")+	c #236376",
"!+	c #98B6BF",
"~+	c #326D7F",
"{+	c #356F80",
"]+	c #306B7D",
"^+	c #AAC3CA",
"/+	c #99B7C0",
"(+	c #356F81",
"_+	c #B0C7CE",
":+	c #94B3BC",
"<+	c #216175",
"[+	c #90B0BA",
"}+	c #B2C8CF",
"|+	c #377182",
"1+	c #4D8190",
"2+	c #C0D2D8",
"3+	c #518493",
"      . + @ @ @ @ @ @ @ @ @ @ @ @ @ @ @ @ @ @ @ @ @ @ + .       ",
"  # @ @ @ @ @ @ @ @ @ @ @ @ @ $ % @ @ @ @ @ @ @ @ @ @ @ @ @ #   ",
"  @ @ @ @ @ @ @ @ @ @ @ @ @ & * = - @ @ @ @ @ @ @ @ @ @ @ @ @   ",
". @ @ @ @ @ @ @ @ @ @ @ ; > , ' ) ! ~ { ] ] @ @ @ @ @ @ @ @ @ . ",
"^ @ @ @ @ @ @ @ @ @ / ( _ : < [ } | 1 2 3 4 ] @ @ @ @ @ @ @ @ ^ ",
"@ @ @ @ @ @ @ @ 5 6 7 8 9 0 a b b c d e f g h i ] @ @ @ @ @ @ @ ",
"@ @ @ @ @ @ j k l m 9 n o p b b b b b q r s o t u v @ @ @ @ @ @ ",
"@ @ @ @ w x y z A 9 B C D b b b b b b b b E F n G H I J @ @ @ @ ",
"@ @ @ @ K L M N O P C C Q b b b R S b b b b b T U V W X @ @ @ @ ",
"@ @ @ @ Y Z `  .b ..C +.Q b b b @.#.$.%.b b b b a &.A *.@ @ @ @ ",
"@ @ @ @ Y =.b b b ..-.;.>.b b b @.@.@.,.'.a b b b ).1 *.@ @ @ @ ",
"@ @ @ @ Y !.b b b ~.{.b b b b b ].].].@.@.^./.b b b (._.] @ @ @ ",
"@ @ @ @ *.!.b b b b b b b b b b ].].].].@.@.:.b b b <._.] @ @ @ ",
"@ @ @ @ *.[.b b b b b b p b b b ].].].].].@.^.b b b }._.A @ @ @ ",
"@ @ @ @ *.[.b b b b |.1.2.b b b ].3.4.5.].@.^.b b b }._.A @ @ @ ",
"@ @ @ @ *.[.b b b 6.7.@.8.b b b 9.0.b a.].@.^.b b b }._.A @ @ @ ",
"@ @ @ @ *.[.b b b b.@.@.8.b c.d.b b b a.].e.f.b b b }._.A @ @ @ ",
"@ @ @ @ *.[.b b b b.@.@.g.h.i.].b b b j.k.p b b b b }._.] @ @ @ ",
"@ @ @ @ Y !.b b b b.+.@.@.@.].].b b b b b b b b b b l._.] @ @ @ ",
"@ @ @ @ Y !.b b b m.+.@.@.@.@.@.b b b b b b b b b b l.*.] @ @ @ ",
"@ @ @ @ Y n.b b b o.p.+.@.@.@.@.b b b b b q.r.b b b [.*.@ @ @ @ ",
"@ @ @ @ Y s.t.b b b p u.v.+.@.@.b b b w.x.+...b b b y.*.@ @ @ @ ",
"@ @ @ @ Y @ z.A.b b b b B.C.D.+.b b b Q +.C ..b E.F.] Y @ @ @ @ ",
"@ @ @ @ G.G.H.I.u J.b b b b q K.b b b L.C B M.N.O.P.Q.R.@ @ @ @ ",
"@ @ @ @ @ ; ~ S.T.U.V.b b b b b b b b W.n 9 9 X.! Y.Z.@ @ @ @ @ ",
"@ @ @ @ @ @ @ `.K  +.+++E.b b b b b @+#+9 V  +K $+@ @ @ @ @ @ @ ",
"@ @ @ @ @ @ @ @ w %+&+*+M =+-+b b q ;+A >+&+,+'+@ @ @ @ @ @ @ @ ",
"+ @ @ @ @ @ @ @ @ @ )+!+( ~+M / {+M ]+^+/+)+@ @ @ @ @ @ @ @ @ + ",
". @ @ @ @ @ @ @ @ @ @ @ (+_+:+<+j [+}+|+@ @ @ @ @ @ @ @ @ @ @ . ",
"  @ @ @ @ @ @ @ @ @ @ @ @ @ 1+y 2+3+@ @ @ @ @ @ @ @ @ @ @ @ @   ",
"  # @ @ @ @ @ @ @ @ @ @ @ @ @ Z % @ @ @ @ @ @ @ @ @ @ @ @ @ #   ",
"      . + @ @ @ @ @ @ @ @ @ @ @ @ @ @ @ @ @ @ @ @ @ @ + .       "};
